<svg width="646" height="332" viewBox="0 0 646 332" fill="none" xmlns="http://www.w3.org/2000/svg">
<rect width="646" height="332" fill="black"/>
<path d="M166.698 75.5664L175.868 79.2725V82.1436L163.886 76.5918V74.4531L175.868 68.916V71.7871L166.698 75.5664ZM190.297 71.0693C191.498 69.5947 193.061 68.8574 194.984 68.8574C198.334 68.8574 200.023 70.7471 200.053 74.5264V85H197.343V74.5117C197.333 73.3691 197.069 72.5244 196.552 71.9775C196.044 71.4307 195.248 71.1572 194.164 71.1572C193.285 71.1572 192.514 71.3916 191.85 71.8604C191.186 72.3291 190.668 72.9443 190.297 73.7061V85H187.587V62.5H190.297V71.0693ZM212.738 85H210.014V66.9385L204.55 68.9453V66.4844L212.313 63.5693H212.738V85ZM237.992 75.4785L228.31 71.6846V68.9014L240.819 74.4385V76.5771L228.31 82.1289V79.3164L237.992 75.4785ZM271.156 79.4336H262.221L260.214 85H257.313L265.458 63.6719H267.919L276.078 85H273.192L271.156 79.4336ZM263.07 77.1191H270.321L266.688 67.1436L263.07 77.1191ZM288.676 71.0693C289.877 69.5947 291.439 68.8574 293.363 68.8574C296.713 68.8574 298.402 70.7471 298.432 74.5264V85H295.722V74.5117C295.712 73.3691 295.448 72.5244 294.931 71.9775C294.423 71.4307 293.627 71.1572 292.543 71.1572C291.664 71.1572 290.893 71.3916 290.229 71.8604C289.564 72.3291 289.047 72.9443 288.676 73.7061V85H285.966V62.5H288.676V71.0693ZM309.066 85.293C306.918 85.293 305.17 84.5898 303.822 83.1836C302.475 81.7676 301.801 79.8779 301.801 77.5146V77.0166C301.801 75.4443 302.099 74.043 302.694 72.8125C303.3 71.5723 304.14 70.6055 305.214 69.9121C306.298 69.209 307.47 68.8574 308.729 68.8574C310.79 68.8574 312.392 69.5361 313.534 70.8936C314.677 72.251 315.248 74.1943 315.248 76.7236V77.8516H304.511C304.55 79.4141 305.004 80.6787 305.873 81.6455C306.752 82.6025 307.865 83.0811 309.213 83.0811C310.17 83.0811 310.98 82.8857 311.645 82.4951C312.309 82.1045 312.89 81.5869 313.388 80.9424L315.043 82.2314C313.715 84.2725 311.723 85.293 309.066 85.293ZM308.729 71.084C307.636 71.084 306.718 71.4844 305.976 72.2852C305.233 73.0762 304.774 74.1895 304.599 75.625H312.538V75.4199C312.46 74.043 312.089 72.9785 311.425 72.2266C310.761 71.4648 309.862 71.084 308.729 71.084ZM328.183 85C328.026 84.6875 327.899 84.1309 327.802 83.3301C326.542 84.6387 325.038 85.293 323.29 85.293C321.728 85.293 320.443 84.8535 319.438 83.9746C318.441 83.0859 317.943 81.9629 317.943 80.6055C317.943 78.9551 318.568 77.6758 319.818 76.7676C321.078 75.8496 322.846 75.3906 325.121 75.3906H327.758V74.1455C327.758 73.1982 327.475 72.4463 326.908 71.8896C326.342 71.3232 325.507 71.04 324.403 71.04C323.437 71.04 322.626 71.2842 321.972 71.7725C321.317 72.2607 320.99 72.8516 320.99 73.5449H318.266C318.266 72.7539 318.544 71.9922 319.101 71.2598C319.667 70.5176 320.429 69.9316 321.386 69.502C322.353 69.0723 323.412 68.8574 324.564 68.8574C326.391 68.8574 327.821 69.3164 328.856 70.2344C329.892 71.1426 330.429 72.3975 330.468 73.999V81.2939C330.468 82.749 330.653 83.9062 331.024 84.7656V85H328.183ZM323.686 82.9346C324.535 82.9346 325.341 82.7148 326.103 82.2754C326.864 81.8359 327.416 81.2646 327.758 80.5615V77.3096H325.634C322.313 77.3096 320.653 78.2812 320.653 80.2246C320.653 81.0742 320.937 81.7383 321.503 82.2168C322.069 82.6953 322.797 82.9346 323.686 82.9346ZM334.057 76.9434C334.057 74.5117 334.633 72.5586 335.785 71.084C336.938 69.5996 338.446 68.8574 340.312 68.8574C342.167 68.8574 343.637 69.4922 344.721 70.7617V62.5H347.431V85H344.94L344.809 83.3008C343.725 84.6289 342.216 85.293 340.282 85.293C338.446 85.293 336.947 84.541 335.785 83.0371C334.633 81.5332 334.057 79.5703 334.057 77.1484V76.9434ZM336.767 77.251C336.767 79.0479 337.138 80.4541 337.88 81.4697C338.622 82.4854 339.647 82.9932 340.956 82.9932C342.675 82.9932 343.93 82.2217 344.721 80.6787V73.3984C343.91 71.9043 342.665 71.1572 340.985 71.1572C339.657 71.1572 338.622 71.6699 337.88 72.6953C337.138 73.7207 336.767 75.2393 336.767 77.251ZM354.594 85H351.884V69.1504H354.594V85ZM351.664 64.9463C351.664 64.5068 351.796 64.1357 352.06 63.833C352.333 63.5303 352.733 63.3789 353.261 63.3789C353.788 63.3789 354.188 63.5303 354.462 63.833C354.735 64.1357 354.872 64.5068 354.872 64.9463C354.872 65.3857 354.735 65.752 354.462 66.0449C354.188 66.3379 353.788 66.4844 353.261 66.4844C352.733 66.4844 352.333 66.3379 352.06 66.0449C351.796 65.752 351.664 65.3857 351.664 64.9463ZM361.508 69.1504L361.596 71.1426C362.807 69.6191 364.389 68.8574 366.342 68.8574C369.691 68.8574 371.381 70.7471 371.41 74.5264V85H368.7V74.5117C368.69 73.3691 368.427 72.5244 367.909 71.9775C367.401 71.4307 366.605 71.1572 365.521 71.1572C364.643 71.1572 363.871 71.3916 363.207 71.8604C362.543 72.3291 362.025 72.9443 361.654 73.7061V85H358.944V69.1504H361.508ZM374.853 76.9434C374.853 74.4727 375.424 72.5098 376.566 71.0547C377.709 69.5898 379.223 68.8574 381.107 68.8574C383.041 68.8574 384.55 69.541 385.634 70.9082L385.766 69.1504H388.241V84.6191C388.241 86.6699 387.631 88.2861 386.41 89.4678C385.199 90.6494 383.568 91.2402 381.518 91.2402C380.375 91.2402 379.257 90.9961 378.163 90.5078C377.069 90.0195 376.234 89.3506 375.658 88.501L377.064 86.875C378.227 88.3105 379.647 89.0283 381.327 89.0283C382.646 89.0283 383.671 88.6572 384.403 87.915C385.146 87.1729 385.517 86.1279 385.517 84.7803V83.418C384.433 84.668 382.953 85.293 381.078 85.293C379.223 85.293 377.719 84.5459 376.566 83.0518C375.424 81.5576 374.853 79.5215 374.853 76.9434ZM377.577 77.251C377.577 79.0381 377.943 80.4443 378.676 81.4697C379.408 82.4854 380.434 82.9932 381.752 82.9932C383.461 82.9932 384.716 82.2168 385.517 80.6641V73.4277C384.687 71.9141 383.441 71.1572 381.781 71.1572C380.463 71.1572 379.433 71.6699 378.69 72.6953C377.948 73.7207 377.577 75.2393 377.577 77.251ZM409.042 75.5664L418.212 79.2725V82.1436L406.229 76.5918V74.4531L418.212 68.916V71.7871L409.042 75.5664ZM430.473 86.8311H428.144L437.05 63.6719H439.364L430.473 86.8311ZM452.445 71.0693C453.646 69.5947 455.209 68.8574 457.133 68.8574C460.482 68.8574 462.172 70.7471 462.201 74.5264V85H459.491V74.5117C459.481 73.3691 459.218 72.5244 458.7 71.9775C458.192 71.4307 457.396 71.1572 456.312 71.1572C455.434 71.1572 454.662 71.3916 453.998 71.8604C453.334 72.3291 452.816 72.9443 452.445 73.7061V85H449.735V62.5H452.445V71.0693ZM474.887 85H472.162V66.9385L466.698 68.9453V66.4844L474.462 63.5693H474.887V85ZM500.141 75.4785L490.458 71.6846V68.9014L502.968 74.4385V76.5771L490.458 82.1289V79.3164L500.141 75.4785Z" fill="white"/>
<path d="M420.482 99.8659C420.408 99.5998 420.132 99.4442 419.866 99.5183L415.531 100.726C415.265 100.8 415.109 101.075 415.183 101.341C415.257 101.607 415.533 101.763 415.799 101.689L419.652 100.616L420.726 104.469C420.8 104.735 421.075 104.891 421.341 104.817C421.607 104.743 421.763 104.467 421.689 104.201L420.482 99.8659ZM419.565 99.7543L362.565 200.754L363.435 201.246L420.435 100.246L419.565 99.7543Z" fill="white"/>
<path d="M186.999 110.958C186.976 110.407 186.51 109.978 185.958 110.001L176.966 110.376C176.414 110.399 175.986 110.864 176.009 111.416C176.032 111.968 176.498 112.397 177.049 112.374L185.042 112.041L185.376 120.034C185.399 120.586 185.864 121.014 186.416 120.991C186.968 120.968 187.397 120.502 187.374 119.951L186.999 110.958ZM140.736 161.677L186.736 111.677L185.264 110.323L139.264 160.323L140.736 161.677Z" fill="white"/>
<path d="M104.359 175.024C104.359 177.114 104.008 178.94 103.305 180.503C102.602 182.056 101.605 183.242 100.316 184.062C99.0273 184.883 97.5234 185.293 95.8047 185.293C94.125 185.293 92.6357 184.883 91.3369 184.062C90.0381 183.232 89.0273 182.056 88.3047 180.532C87.5918 178.999 87.2256 177.227 87.2061 175.215V173.677C87.2061 171.626 87.5625 169.814 88.2754 168.242C88.9883 166.67 89.9941 165.469 91.293 164.639C92.6016 163.799 94.0957 163.379 95.7754 163.379C97.4844 163.379 98.9883 163.794 100.287 164.624C101.596 165.444 102.602 166.641 103.305 168.213C104.008 169.775 104.359 171.597 104.359 173.677V175.024ZM101.562 173.647C101.562 171.118 101.054 169.18 100.038 167.832C99.0225 166.475 97.6016 165.796 95.7754 165.796C93.998 165.796 92.5967 166.475 91.5713 167.832C90.5557 169.18 90.0332 171.055 90.0039 173.457V175.024C90.0039 177.476 90.5166 179.404 91.542 180.811C92.5771 182.207 93.998 182.905 95.8047 182.905C97.6211 182.905 99.0273 182.246 100.023 180.928C101.02 179.6 101.532 177.7 101.562 175.229V173.647ZM121.542 177.251C121.542 179.663 120.99 181.606 119.887 183.081C118.783 184.556 117.289 185.293 115.404 185.293C113.48 185.293 111.967 184.683 110.863 183.462V191.094H108.153V169.15H110.629L110.761 170.908C111.864 169.541 113.397 168.857 115.36 168.857C117.265 168.857 118.769 169.575 119.872 171.011C120.985 172.446 121.542 174.443 121.542 177.002V177.251ZM118.832 176.943C118.832 175.156 118.451 173.745 117.689 172.71C116.928 171.675 115.883 171.157 114.555 171.157C112.914 171.157 111.684 171.885 110.863 173.34V180.913C111.674 182.358 112.914 183.081 114.584 183.081C115.883 183.081 116.913 182.568 117.675 181.543C118.446 180.508 118.832 178.975 118.832 176.943ZM131.576 185.293C129.428 185.293 127.68 184.59 126.332 183.184C124.984 181.768 124.311 179.878 124.311 177.515V177.017C124.311 175.444 124.608 174.043 125.204 172.812C125.81 171.572 126.649 170.605 127.724 169.912C128.808 169.209 129.979 168.857 131.239 168.857C133.3 168.857 134.901 169.536 136.044 170.894C137.187 172.251 137.758 174.194 137.758 176.724V177.852H127.021C127.06 179.414 127.514 180.679 128.383 181.646C129.262 182.603 130.375 183.081 131.723 183.081C132.68 183.081 133.49 182.886 134.154 182.495C134.818 182.104 135.399 181.587 135.897 180.942L137.553 182.231C136.225 184.272 134.232 185.293 131.576 185.293ZM131.239 171.084C130.146 171.084 129.228 171.484 128.485 172.285C127.743 173.076 127.284 174.189 127.108 175.625H135.048V175.42C134.97 174.043 134.599 172.979 133.935 172.227C133.271 171.465 132.372 171.084 131.239 171.084ZM143.471 169.15L143.559 171.143C144.77 169.619 146.352 168.857 148.305 168.857C151.654 168.857 153.344 170.747 153.373 174.526V185H150.663V174.512C150.653 173.369 150.39 172.524 149.872 171.978C149.364 171.431 148.568 171.157 147.484 171.157C146.605 171.157 145.834 171.392 145.17 171.86C144.506 172.329 143.988 172.944 143.617 173.706V185H140.907V169.15H143.471ZM160.404 185H157.694V169.15H160.404V185ZM157.475 164.946C157.475 164.507 157.606 164.136 157.87 163.833C158.144 163.53 158.544 163.379 159.071 163.379C159.599 163.379 159.999 163.53 160.272 163.833C160.546 164.136 160.683 164.507 160.683 164.946C160.683 165.386 160.546 165.752 160.272 166.045C159.999 166.338 159.599 166.484 159.071 166.484C158.544 166.484 158.144 166.338 157.87 166.045C157.606 165.752 157.475 165.386 157.475 164.946ZM167.318 169.15L167.406 171.143C168.617 169.619 170.199 168.857 172.152 168.857C175.502 168.857 177.191 170.747 177.221 174.526V185H174.511V174.512C174.501 173.369 174.237 172.524 173.72 171.978C173.212 171.431 172.416 171.157 171.332 171.157C170.453 171.157 169.682 171.392 169.018 171.86C168.354 172.329 167.836 172.944 167.465 173.706V185H164.755V169.15H167.318ZM180.663 176.943C180.663 174.473 181.234 172.51 182.377 171.055C183.52 169.59 185.033 168.857 186.918 168.857C188.852 168.857 190.36 169.541 191.444 170.908L191.576 169.15H194.052V184.619C194.052 186.67 193.441 188.286 192.221 189.468C191.01 190.649 189.379 191.24 187.328 191.24C186.186 191.24 185.067 190.996 183.974 190.508C182.88 190.02 182.045 189.351 181.469 188.501L182.875 186.875C184.037 188.311 185.458 189.028 187.138 189.028C188.456 189.028 189.481 188.657 190.214 187.915C190.956 187.173 191.327 186.128 191.327 184.78V183.418C190.243 184.668 188.764 185.293 186.889 185.293C185.033 185.293 183.529 184.546 182.377 183.052C181.234 181.558 180.663 179.521 180.663 176.943ZM183.388 177.251C183.388 179.038 183.754 180.444 184.486 181.47C185.219 182.485 186.244 182.993 187.562 182.993C189.271 182.993 190.526 182.217 191.327 180.664V173.428C190.497 171.914 189.252 171.157 187.592 171.157C186.273 171.157 185.243 171.67 184.501 172.695C183.759 173.721 183.388 175.239 183.388 177.251ZM209.271 165.312V169.15H212.23V171.245H209.271V181.074C209.271 181.709 209.403 182.188 209.667 182.51C209.931 182.822 210.38 182.979 211.015 182.979C211.327 182.979 211.757 182.92 212.304 182.803V185C211.591 185.195 210.897 185.293 210.224 185.293C209.013 185.293 208.1 184.927 207.484 184.194C206.869 183.462 206.562 182.422 206.562 181.074V171.245H203.676V169.15H206.562V165.312H209.271ZM225.194 185C225.038 184.688 224.911 184.131 224.813 183.33C223.554 184.639 222.05 185.293 220.302 185.293C218.739 185.293 217.455 184.854 216.449 183.975C215.453 183.086 214.955 181.963 214.955 180.605C214.955 178.955 215.58 177.676 216.83 176.768C218.09 175.85 219.857 175.391 222.133 175.391H224.77V174.146C224.77 173.198 224.486 172.446 223.92 171.89C223.354 171.323 222.519 171.04 221.415 171.04C220.448 171.04 219.638 171.284 218.983 171.772C218.329 172.261 218.002 172.852 218.002 173.545H215.277C215.277 172.754 215.556 171.992 216.112 171.26C216.679 170.518 217.44 169.932 218.397 169.502C219.364 169.072 220.424 168.857 221.576 168.857C223.402 168.857 224.833 169.316 225.868 170.234C226.903 171.143 227.44 172.397 227.479 173.999V181.294C227.479 182.749 227.665 183.906 228.036 184.766V185H225.194ZM220.697 182.935C221.547 182.935 222.353 182.715 223.114 182.275C223.876 181.836 224.428 181.265 224.77 180.562V177.31H222.646C219.325 177.31 217.665 178.281 217.665 180.225C217.665 181.074 217.948 181.738 218.515 182.217C219.081 182.695 219.809 182.935 220.697 182.935ZM231.083 176.943C231.083 174.473 231.654 172.51 232.797 171.055C233.939 169.59 235.453 168.857 237.338 168.857C239.271 168.857 240.78 169.541 241.864 170.908L241.996 169.15H244.472V184.619C244.472 186.67 243.861 188.286 242.641 189.468C241.43 190.649 239.799 191.24 237.748 191.24C236.605 191.24 235.487 190.996 234.394 190.508C233.3 190.02 232.465 189.351 231.889 188.501L233.295 186.875C234.457 188.311 235.878 189.028 237.558 189.028C238.876 189.028 239.901 188.657 240.634 187.915C241.376 187.173 241.747 186.128 241.747 184.78V183.418C240.663 184.668 239.184 185.293 237.309 185.293C235.453 185.293 233.949 184.546 232.797 183.052C231.654 181.558 231.083 179.521 231.083 176.943ZM233.808 177.251C233.808 179.038 234.174 180.444 234.906 181.47C235.639 182.485 236.664 182.993 237.982 182.993C239.691 182.993 240.946 182.217 241.747 180.664V173.428C240.917 171.914 239.672 171.157 238.012 171.157C236.693 171.157 235.663 171.67 234.921 172.695C234.179 173.721 233.808 175.239 233.808 177.251Z" fill="white"/>
<path d="M422.9 178.232C422.637 180.488 421.802 182.231 420.396 183.462C418.999 184.683 417.139 185.293 414.814 185.293C412.295 185.293 410.273 184.39 408.75 182.583C407.236 180.776 406.479 178.359 406.479 175.332V173.281C406.479 171.299 406.831 169.556 407.534 168.052C408.247 166.548 409.253 165.396 410.552 164.595C411.851 163.784 413.354 163.379 415.063 163.379C417.329 163.379 419.146 164.014 420.513 165.283C421.88 166.543 422.676 168.291 422.9 170.527H420.073C419.829 168.828 419.297 167.598 418.477 166.836C417.666 166.074 416.528 165.693 415.063 165.693C413.267 165.693 411.855 166.357 410.83 167.686C409.814 169.014 409.307 170.903 409.307 173.354V175.42C409.307 177.734 409.79 179.575 410.757 180.942C411.724 182.31 413.076 182.993 414.814 182.993C416.377 182.993 417.573 182.642 418.403 181.938C419.243 181.226 419.8 179.99 420.073 178.232H422.9ZM429.272 185H426.562V162.5H429.272V185ZM432.905 176.929C432.905 175.376 433.208 173.979 433.813 172.739C434.429 171.499 435.278 170.542 436.362 169.868C437.456 169.194 438.701 168.857 440.098 168.857C442.256 168.857 443.999 169.604 445.327 171.099C446.665 172.593 447.334 174.58 447.334 177.061V177.251C447.334 178.794 447.036 180.181 446.44 181.411C445.854 182.632 445.01 183.584 443.906 184.268C442.812 184.951 441.553 185.293 440.127 185.293C437.979 185.293 436.235 184.546 434.897 183.052C433.569 181.558 432.905 179.58 432.905 177.119V176.929ZM435.63 177.251C435.63 179.009 436.035 180.42 436.846 181.484C437.666 182.549 438.76 183.081 440.127 183.081C441.504 183.081 442.598 182.544 443.408 181.47C444.219 180.386 444.624 178.872 444.624 176.929C444.624 175.19 444.209 173.784 443.379 172.71C442.559 171.626 441.465 171.084 440.098 171.084C438.76 171.084 437.681 171.616 436.86 172.681C436.04 173.745 435.63 175.269 435.63 177.251ZM459.961 180.796C459.961 180.063 459.683 179.497 459.126 179.097C458.579 178.687 457.617 178.335 456.24 178.042C454.873 177.749 453.784 177.397 452.974 176.987C452.173 176.577 451.577 176.089 451.187 175.522C450.806 174.956 450.615 174.282 450.615 173.501C450.615 172.202 451.162 171.104 452.256 170.205C453.359 169.307 454.766 168.857 456.475 168.857C458.271 168.857 459.727 169.321 460.84 170.249C461.963 171.177 462.524 172.363 462.524 173.809H459.8C459.8 173.066 459.482 172.427 458.848 171.89C458.223 171.353 457.432 171.084 456.475 171.084C455.488 171.084 454.717 171.299 454.16 171.729C453.604 172.158 453.325 172.72 453.325 173.413C453.325 174.067 453.584 174.561 454.102 174.893C454.619 175.225 455.552 175.542 456.899 175.845C458.257 176.147 459.355 176.509 460.195 176.929C461.035 177.349 461.655 177.856 462.056 178.452C462.466 179.038 462.671 179.756 462.671 180.605C462.671 182.021 462.104 183.159 460.972 184.019C459.839 184.868 458.369 185.293 456.562 185.293C455.293 185.293 454.17 185.068 453.193 184.619C452.217 184.17 451.45 183.545 450.894 182.744C450.347 181.934 450.073 181.06 450.073 180.122H452.783C452.832 181.03 453.193 181.753 453.867 182.29C454.551 182.817 455.449 183.081 456.562 183.081C457.588 183.081 458.408 182.876 459.023 182.466C459.648 182.046 459.961 181.489 459.961 180.796ZM469.146 185H466.436V169.15H469.146V185ZM466.216 164.946C466.216 164.507 466.348 164.136 466.611 163.833C466.885 163.53 467.285 163.379 467.812 163.379C468.34 163.379 468.74 163.53 469.014 163.833C469.287 164.136 469.424 164.507 469.424 164.946C469.424 165.386 469.287 165.752 469.014 166.045C468.74 166.338 468.34 166.484 467.812 166.484C467.285 166.484 466.885 166.338 466.611 166.045C466.348 165.752 466.216 165.386 466.216 164.946ZM476.06 169.15L476.147 171.143C477.358 169.619 478.94 168.857 480.894 168.857C484.243 168.857 485.933 170.747 485.962 174.526V185H483.252V174.512C483.242 173.369 482.979 172.524 482.461 171.978C481.953 171.431 481.157 171.157 480.073 171.157C479.194 171.157 478.423 171.392 477.759 171.86C477.095 172.329 476.577 172.944 476.206 173.706V185H473.496V169.15H476.06ZM489.404 176.943C489.404 174.473 489.976 172.51 491.118 171.055C492.261 169.59 493.774 168.857 495.659 168.857C497.593 168.857 499.102 169.541 500.186 170.908L500.317 169.15H502.793V184.619C502.793 186.67 502.183 188.286 500.962 189.468C499.751 190.649 498.12 191.24 496.069 191.24C494.927 191.24 493.809 190.996 492.715 190.508C491.621 190.02 490.786 189.351 490.21 188.501L491.616 186.875C492.778 188.311 494.199 189.028 495.879 189.028C497.197 189.028 498.223 188.657 498.955 187.915C499.697 187.173 500.068 186.128 500.068 184.78V183.418C498.984 184.668 497.505 185.293 495.63 185.293C493.774 185.293 492.271 184.546 491.118 183.052C489.976 181.558 489.404 179.521 489.404 176.943ZM492.129 177.251C492.129 179.038 492.495 180.444 493.228 181.47C493.96 182.485 494.985 182.993 496.304 182.993C498.013 182.993 499.268 182.217 500.068 180.664V173.428C499.238 171.914 497.993 171.157 496.333 171.157C495.015 171.157 493.984 171.67 493.242 172.695C492.5 173.721 492.129 175.239 492.129 177.251ZM518.013 165.312V169.15H520.972V171.245H518.013V181.074C518.013 181.709 518.145 182.188 518.408 182.51C518.672 182.822 519.121 182.979 519.756 182.979C520.068 182.979 520.498 182.92 521.045 182.803V185C520.332 185.195 519.639 185.293 518.965 185.293C517.754 185.293 516.841 184.927 516.226 184.194C515.61 183.462 515.303 182.422 515.303 181.074V171.245H512.417V169.15H515.303V165.312H518.013ZM533.936 185C533.779 184.688 533.652 184.131 533.555 183.33C532.295 184.639 530.791 185.293 529.043 185.293C527.48 185.293 526.196 184.854 525.19 183.975C524.194 183.086 523.696 181.963 523.696 180.605C523.696 178.955 524.321 177.676 525.571 176.768C526.831 175.85 528.599 175.391 530.874 175.391H533.511V174.146C533.511 173.198 533.228 172.446 532.661 171.89C532.095 171.323 531.26 171.04 530.156 171.04C529.189 171.04 528.379 171.284 527.725 171.772C527.07 172.261 526.743 172.852 526.743 173.545H524.019C524.019 172.754 524.297 171.992 524.854 171.26C525.42 170.518 526.182 169.932 527.139 169.502C528.105 169.072 529.165 168.857 530.317 168.857C532.144 168.857 533.574 169.316 534.609 170.234C535.645 171.143 536.182 172.397 536.221 173.999V181.294C536.221 182.749 536.406 183.906 536.777 184.766V185H533.936ZM529.438 182.935C530.288 182.935 531.094 182.715 531.855 182.275C532.617 181.836 533.169 181.265 533.511 180.562V177.31H531.387C528.066 177.31 526.406 178.281 526.406 180.225C526.406 181.074 526.689 181.738 527.256 182.217C527.822 182.695 528.55 182.935 529.438 182.935ZM539.824 176.943C539.824 174.473 540.396 172.51 541.538 171.055C542.681 169.59 544.194 168.857 546.079 168.857C548.013 168.857 549.521 169.541 550.605 170.908L550.737 169.15H553.213V184.619C553.213 186.67 552.603 188.286 551.382 189.468C550.171 190.649 548.54 191.24 546.489 191.24C545.347 191.24 544.229 190.996 543.135 190.508C542.041 190.02 541.206 189.351 540.63 188.501L542.036 186.875C543.198 188.311 544.619 189.028 546.299 189.028C547.617 189.028 548.643 188.657 549.375 187.915C550.117 187.173 550.488 186.128 550.488 184.78V183.418C549.404 184.668 547.925 185.293 546.05 185.293C544.194 185.293 542.69 184.546 541.538 183.052C540.396 181.558 539.824 179.521 539.824 176.943ZM542.549 177.251C542.549 179.038 542.915 180.444 543.647 181.47C544.38 182.485 545.405 182.993 546.724 182.993C548.433 182.993 549.688 182.217 550.488 180.664V173.428C549.658 171.914 548.413 171.157 546.753 171.157C545.435 171.157 544.404 171.67 543.662 172.695C542.92 173.721 542.549 175.239 542.549 177.251Z" fill="white"/>
<path d="M475.207 117.022C474.666 116.907 474.136 117.253 474.022 117.793L472.161 126.599C472.047 127.139 472.393 127.67 472.933 127.784C473.473 127.898 474.004 127.553 474.118 127.012L475.772 119.185L483.599 120.839C484.139 120.953 484.67 120.607 484.784 120.067C484.898 119.527 484.553 118.996 484.012 118.882L475.207 117.022ZM474.162 118.546L502.162 161.546L503.838 160.454L475.838 117.454L474.162 118.546Z" fill="white"/>
<path d="M327.894 209.291H323.419V214H322.013V203.336H328.619V204.493H323.419V208.141H327.894V209.291ZM329.571 209.964C329.571 209.188 329.723 208.49 330.025 207.87C330.333 207.25 330.758 206.771 331.3 206.434C331.847 206.097 332.469 205.929 333.167 205.929C334.247 205.929 335.118 206.302 335.782 207.049C336.451 207.796 336.786 208.79 336.786 210.03V210.125C336.786 210.897 336.637 211.59 336.339 212.206C336.046 212.816 335.624 213.292 335.072 213.634C334.525 213.976 333.895 214.146 333.182 214.146C332.108 214.146 331.236 213.773 330.567 213.026C329.903 212.279 329.571 211.29 329.571 210.06V209.964ZM330.934 210.125C330.934 211.004 331.136 211.71 331.542 212.242C331.952 212.774 332.499 213.041 333.182 213.041C333.871 213.041 334.417 212.772 334.823 212.235C335.228 211.693 335.431 210.936 335.431 209.964C335.431 209.095 335.223 208.392 334.808 207.855C334.398 207.313 333.851 207.042 333.167 207.042C332.499 207.042 331.959 207.308 331.549 207.84C331.139 208.373 330.934 209.134 330.934 210.125ZM342.315 207.291C342.11 207.257 341.888 207.24 341.649 207.24C340.76 207.24 340.157 207.618 339.84 208.375V214H338.485V206.075H339.803L339.825 206.991C340.27 206.283 340.899 205.929 341.715 205.929C341.979 205.929 342.179 205.963 342.315 206.031V207.291ZM350.716 212.132L352.24 206.075H353.595L351.288 214H350.189L348.263 207.994L346.388 214H345.289L342.989 206.075H344.337L345.897 212.008L347.743 206.075H348.834L350.716 212.132ZM359.872 214C359.793 213.844 359.73 213.565 359.681 213.165C359.051 213.819 358.299 214.146 357.425 214.146C356.644 214.146 356.002 213.927 355.499 213.487C355.001 213.043 354.752 212.481 354.752 211.803C354.752 210.978 355.064 210.338 355.689 209.884C356.319 209.425 357.203 209.195 358.341 209.195H359.659V208.573C359.659 208.099 359.518 207.723 359.234 207.445C358.951 207.162 358.534 207.02 357.982 207.02C357.499 207.02 357.093 207.142 356.766 207.386C356.439 207.63 356.275 207.926 356.275 208.272H354.913C354.913 207.877 355.052 207.496 355.331 207.13C355.614 206.759 355.995 206.466 356.473 206.251C356.957 206.036 357.486 205.929 358.062 205.929C358.976 205.929 359.691 206.158 360.208 206.617C360.726 207.071 360.995 207.699 361.014 208.5V212.147C361.014 212.875 361.107 213.453 361.292 213.883V214H359.872ZM357.623 212.967C358.048 212.967 358.451 212.857 358.832 212.638C359.212 212.418 359.488 212.132 359.659 211.781V210.155H358.597C356.937 210.155 356.107 210.641 356.107 211.612C356.107 212.037 356.249 212.369 356.532 212.608C356.815 212.848 357.179 212.967 357.623 212.967ZM366.969 207.291C366.764 207.257 366.542 207.24 366.302 207.24C365.414 207.24 364.811 207.618 364.493 208.375V214H363.138V206.075H364.457L364.479 206.991C364.923 206.283 365.553 205.929 366.368 205.929C366.632 205.929 366.832 205.963 366.969 206.031V207.291ZM367.745 209.972C367.745 208.756 368.033 207.779 368.609 207.042C369.186 206.3 369.94 205.929 370.873 205.929C371.8 205.929 372.535 206.246 373.077 206.881V202.75H374.432V214H373.187L373.121 213.15C372.579 213.814 371.825 214.146 370.858 214.146C369.94 214.146 369.19 213.771 368.609 213.019C368.033 212.267 367.745 211.285 367.745 210.074V209.972ZM369.1 210.125C369.1 211.024 369.286 211.727 369.657 212.235C370.028 212.743 370.541 212.997 371.195 212.997C372.054 212.997 372.682 212.611 373.077 211.839V208.199C372.672 207.452 372.049 207.079 371.209 207.079C370.545 207.079 370.028 207.335 369.657 207.848C369.286 208.36 369.1 209.12 369.1 210.125ZM383.617 209.247C382.411 208.9 381.532 208.475 380.98 207.972C380.433 207.464 380.16 206.839 380.16 206.097C380.16 205.257 380.494 204.564 381.163 204.017C381.837 203.465 382.711 203.189 383.785 203.189C384.518 203.189 385.169 203.331 385.741 203.614C386.317 203.897 386.761 204.288 387.074 204.786C387.391 205.284 387.55 205.829 387.55 206.419H386.136C386.136 205.775 385.931 205.27 385.521 204.903C385.111 204.532 384.532 204.347 383.785 204.347C383.092 204.347 382.55 204.5 382.159 204.808C381.773 205.111 381.581 205.533 381.581 206.075C381.581 206.51 381.764 206.878 382.13 207.181C382.501 207.479 383.128 207.752 384.012 208.001C384.901 208.25 385.594 208.526 386.092 208.829C386.595 209.127 386.966 209.476 387.206 209.876C387.45 210.277 387.572 210.748 387.572 211.29C387.572 212.154 387.235 212.848 386.561 213.37C385.887 213.888 384.986 214.146 383.858 214.146C383.126 214.146 382.442 214.007 381.808 213.729C381.173 213.446 380.682 213.06 380.335 212.572C379.994 212.083 379.823 211.529 379.823 210.909H381.236C381.236 211.554 381.473 212.064 381.947 212.44C382.425 212.811 383.062 212.997 383.858 212.997C384.601 212.997 385.169 212.845 385.565 212.542C385.96 212.24 386.158 211.827 386.158 211.305C386.158 210.782 385.975 210.379 385.609 210.096C385.243 209.808 384.579 209.525 383.617 209.247ZM390.641 214H389.286V202.75H390.641V214ZM397.708 214C397.63 213.844 397.567 213.565 397.518 213.165C396.888 213.819 396.136 214.146 395.262 214.146C394.481 214.146 393.839 213.927 393.336 213.487C392.838 213.043 392.589 212.481 392.589 211.803C392.589 210.978 392.901 210.338 393.526 209.884C394.156 209.425 395.04 209.195 396.178 209.195H397.496V208.573C397.496 208.099 397.354 207.723 397.071 207.445C396.788 207.162 396.371 207.02 395.819 207.02C395.335 207.02 394.93 207.142 394.603 207.386C394.276 207.63 394.112 207.926 394.112 208.272H392.75C392.75 207.877 392.889 207.496 393.167 207.13C393.451 206.759 393.832 206.466 394.31 206.251C394.793 206.036 395.323 205.929 395.899 205.929C396.812 205.929 397.528 206.158 398.045 206.617C398.563 207.071 398.832 207.699 398.851 208.5V212.147C398.851 212.875 398.944 213.453 399.129 213.883V214H397.708ZM395.46 212.967C395.885 212.967 396.288 212.857 396.668 212.638C397.049 212.418 397.325 212.132 397.496 211.781V210.155H396.434C394.774 210.155 393.944 210.641 393.944 211.612C393.944 212.037 394.085 212.369 394.369 212.608C394.652 212.848 395.016 212.967 395.46 212.967ZM405.589 211.898C405.589 211.532 405.45 211.249 405.172 211.048C404.898 210.843 404.417 210.667 403.729 210.521C403.045 210.375 402.501 210.199 402.096 209.994C401.695 209.789 401.397 209.544 401.202 209.261C401.012 208.978 400.917 208.641 400.917 208.25C400.917 207.601 401.19 207.052 401.737 206.603C402.289 206.153 402.992 205.929 403.846 205.929C404.745 205.929 405.472 206.161 406.029 206.625C406.59 207.088 406.871 207.682 406.871 208.404H405.509C405.509 208.033 405.35 207.713 405.033 207.445C404.72 207.176 404.325 207.042 403.846 207.042C403.353 207.042 402.967 207.149 402.689 207.364C402.411 207.579 402.271 207.86 402.271 208.207C402.271 208.534 402.401 208.78 402.66 208.946C402.918 209.112 403.385 209.271 404.059 209.422C404.737 209.574 405.287 209.754 405.707 209.964C406.126 210.174 406.437 210.428 406.637 210.726C406.842 211.019 406.944 211.378 406.944 211.803C406.944 212.511 406.661 213.08 406.095 213.509C405.528 213.934 404.793 214.146 403.89 214.146C403.255 214.146 402.694 214.034 402.206 213.81C401.717 213.585 401.334 213.272 401.056 212.872C400.782 212.467 400.646 212.03 400.646 211.561H402C402.025 212.015 402.206 212.376 402.542 212.645C402.884 212.909 403.333 213.041 403.89 213.041C404.403 213.041 404.813 212.938 405.121 212.733C405.433 212.523 405.589 212.245 405.589 211.898ZM410.064 207.035C410.665 206.297 411.446 205.929 412.408 205.929C414.083 205.929 414.928 206.874 414.942 208.763V214H413.587V208.756C413.583 208.185 413.451 207.762 413.192 207.489C412.938 207.215 412.54 207.079 411.998 207.079C411.559 207.079 411.173 207.196 410.841 207.43C410.509 207.665 410.25 207.972 410.064 208.353V214H408.709V202.75H410.064V207.035Z" fill="white"/>
<path d="M68.0469 288.549C68.0078 289.337 67.8125 289.958 67.4609 290.414C67.1094 290.87 66.639 291.098 66.0498 291.098C65.4411 291.098 65.0505 290.824 64.8779 290.277C64.7021 290.554 64.5003 290.761 64.2725 290.897C64.0479 291.031 63.8151 291.098 63.5742 291.098C63.112 291.098 62.762 290.909 62.5244 290.531C62.2868 290.154 62.1989 289.631 62.2607 288.964C62.3096 288.427 62.4316 287.948 62.627 287.528C62.8255 287.105 63.0794 286.773 63.3887 286.532C63.7012 286.291 64.0283 286.171 64.3701 286.171C64.6338 286.171 64.8698 286.207 65.0781 286.278C65.2865 286.347 65.5208 286.483 65.7812 286.688L65.5273 289.394C65.4655 290.146 65.6738 290.521 66.1523 290.521C66.5202 290.521 66.818 290.339 67.0459 289.975C67.2738 289.61 67.3975 289.135 67.417 288.549C67.4788 287.283 67.2428 286.317 66.709 285.653C66.1784 284.989 65.3695 284.657 64.2822 284.657C63.6279 284.657 63.0469 284.82 62.5391 285.146C62.0312 285.468 61.6309 285.935 61.3379 286.547C61.0449 287.159 60.8805 287.865 60.8447 288.666C60.8057 289.473 60.9033 290.175 61.1377 290.771C61.3721 291.363 61.7285 291.815 62.207 292.128C62.6888 292.444 63.2699 292.602 63.9502 292.602C64.2432 292.602 64.5361 292.566 64.8291 292.494C65.1253 292.423 65.3711 292.33 65.5664 292.216L65.7471 292.777C65.5452 292.904 65.2767 293.008 64.9414 293.09C64.6094 293.171 64.2725 293.212 63.9307 293.212C63.1169 293.212 62.417 293.028 61.8311 292.66C61.2451 292.296 60.8057 291.768 60.5127 291.078C60.223 290.391 60.0977 289.587 60.1367 288.666C60.1758 287.771 60.376 286.967 60.7373 286.254C61.0986 285.538 61.5885 284.986 62.207 284.599C62.8255 284.208 63.5238 284.013 64.3018 284.013C65.1123 284.013 65.8073 284.195 66.3867 284.56C66.9661 284.924 67.3975 285.45 67.6807 286.137C67.9639 286.824 68.0859 287.628 68.0469 288.549ZM63.0371 288.964C62.9915 289.426 63.0339 289.781 63.1641 290.028C63.2975 290.276 63.5075 290.399 63.7939 290.399C63.9893 290.399 64.1764 290.316 64.3555 290.15C64.5378 289.984 64.6875 289.747 64.8047 289.438L64.8096 289.394L65.0342 286.938C64.8519 286.843 64.6566 286.796 64.4482 286.796C64.0674 286.796 63.7516 286.99 63.501 287.377C63.2536 287.764 63.099 288.293 63.0371 288.964ZM68.9893 288.31C68.9893 287.792 69.0902 287.326 69.292 286.913C69.4971 286.5 69.7803 286.181 70.1416 285.956C70.5062 285.731 70.9212 285.619 71.3867 285.619C72.1061 285.619 72.6872 285.868 73.1299 286.366C73.5758 286.864 73.7988 287.527 73.7988 288.354V288.417C73.7988 288.931 73.6995 289.394 73.501 289.804C73.3057 290.211 73.0241 290.528 72.6562 290.756C72.2917 290.984 71.8717 291.098 71.3965 291.098C70.6803 291.098 70.0993 290.849 69.6533 290.351C69.2106 289.853 68.9893 289.193 68.9893 288.373V288.31ZM69.8975 288.417C69.8975 289.003 70.0326 289.473 70.3027 289.828C70.5762 290.183 70.9408 290.36 71.3965 290.36C71.8555 290.36 72.2201 290.181 72.4902 289.823C72.7604 289.462 72.8955 288.957 72.8955 288.31C72.8955 287.73 72.7572 287.261 72.4805 286.903C72.207 286.542 71.8424 286.361 71.3867 286.361C70.9408 286.361 70.5811 286.539 70.3076 286.894C70.0342 287.248 69.8975 287.756 69.8975 288.417ZM75.376 291V286.415H74.541V285.717H75.376V285.175C75.376 284.608 75.5273 284.171 75.8301 283.861C76.1328 283.552 76.5609 283.397 77.1143 283.397C77.3226 283.397 77.5293 283.425 77.7344 283.48L77.6855 284.213C77.5326 284.184 77.3698 284.169 77.1973 284.169C76.9043 284.169 76.6781 284.255 76.5186 284.428C76.359 284.597 76.2793 284.841 76.2793 285.16V285.717H78.2324V285.268C78.2324 284.678 78.4001 284.219 78.7354 283.891C79.0739 283.562 79.5508 283.397 80.166 283.397C80.5306 283.397 80.9912 283.497 81.5479 283.695L81.3965 284.457C80.9896 284.294 80.6006 284.213 80.2295 284.213C79.8421 284.213 79.5622 284.299 79.3896 284.472C79.2204 284.644 79.1357 284.906 79.1357 285.258V285.717H80.2197V286.415H79.1357V291H78.2324V286.415H76.2793V291H75.376ZM81.9922 291H81.0889V285.717H81.9922V291ZM85.5859 290.36C85.9082 290.36 86.1898 290.263 86.4307 290.067C86.6715 289.872 86.805 289.628 86.8311 289.335H87.6855C87.6693 289.638 87.5651 289.926 87.373 290.199C87.181 290.473 86.9238 290.691 86.6016 290.854C86.2826 291.016 85.944 291.098 85.5859 291.098C84.8665 291.098 84.2936 290.858 83.8672 290.38C83.444 289.898 83.2324 289.241 83.2324 288.407V288.256C83.2324 287.742 83.3268 287.284 83.5156 286.884C83.7044 286.483 83.9746 286.173 84.3262 285.951C84.681 285.73 85.0993 285.619 85.5811 285.619C86.1735 285.619 86.665 285.797 87.0557 286.151C87.4495 286.506 87.6595 286.967 87.6855 287.533H86.8311C86.805 287.191 86.6748 286.911 86.4404 286.693C86.2093 286.472 85.9229 286.361 85.5811 286.361C85.1221 286.361 84.7656 286.527 84.5117 286.859C84.2611 287.188 84.1357 287.665 84.1357 288.29V288.461C84.1357 289.07 84.2611 289.538 84.5117 289.867C84.7624 290.196 85.1204 290.36 85.5859 290.36ZM89.6826 291H88.7793V285.717H89.6826V291ZM88.7061 284.315C88.7061 284.169 88.75 284.045 88.8379 283.944C88.929 283.843 89.0625 283.793 89.2383 283.793C89.4141 283.793 89.5475 283.843 89.6387 283.944C89.7298 284.045 89.7754 284.169 89.7754 284.315C89.7754 284.462 89.7298 284.584 89.6387 284.682C89.5475 284.779 89.4141 284.828 89.2383 284.828C89.0625 284.828 88.929 284.779 88.8379 284.682C88.75 284.584 88.7061 284.462 88.7061 284.315ZM94.3945 291C94.3424 290.896 94.3001 290.71 94.2676 290.443C93.8477 290.88 93.3464 291.098 92.7637 291.098C92.2428 291.098 91.8148 290.951 91.4795 290.658C91.1475 290.362 90.9814 289.988 90.9814 289.535C90.9814 288.985 91.1898 288.559 91.6064 288.256C92.0264 287.95 92.6156 287.797 93.374 287.797H94.2529V287.382C94.2529 287.066 94.1585 286.815 93.9697 286.63C93.7809 286.441 93.5026 286.347 93.1348 286.347C92.8125 286.347 92.5423 286.428 92.3242 286.591C92.1061 286.754 91.9971 286.951 91.9971 287.182H91.0889C91.0889 286.918 91.1816 286.664 91.3672 286.42C91.556 286.173 91.8099 285.977 92.1289 285.834C92.4512 285.691 92.8044 285.619 93.1885 285.619C93.7972 285.619 94.2741 285.772 94.6191 286.078C94.9642 286.381 95.1432 286.799 95.1562 287.333V289.765C95.1562 290.25 95.2181 290.635 95.3418 290.922V291H94.3945ZM92.8955 290.312C93.1787 290.312 93.4473 290.238 93.7012 290.092C93.9551 289.945 94.139 289.755 94.2529 289.521V288.437H93.5449C92.4382 288.437 91.8848 288.76 91.8848 289.408C91.8848 289.691 91.9792 289.913 92.168 290.072C92.3568 290.232 92.5993 290.312 92.8955 290.312ZM97.5537 291H96.6504V283.5H97.5537V291ZM101.558 286.527C101.421 286.505 101.273 286.493 101.113 286.493C100.521 286.493 100.119 286.745 99.9072 287.25V291H99.0039V285.717H99.8828L99.8975 286.327C100.194 285.855 100.614 285.619 101.157 285.619C101.333 285.619 101.466 285.642 101.558 285.688V286.527ZM105.459 291C105.407 290.896 105.365 290.71 105.332 290.443C104.912 290.88 104.411 291.098 103.828 291.098C103.307 291.098 102.879 290.951 102.544 290.658C102.212 290.362 102.046 289.988 102.046 289.535C102.046 288.985 102.254 288.559 102.671 288.256C103.091 287.95 103.68 287.797 104.438 287.797H105.317V287.382C105.317 287.066 105.223 286.815 105.034 286.63C104.845 286.441 104.567 286.347 104.199 286.347C103.877 286.347 103.607 286.428 103.389 286.591C103.171 286.754 103.062 286.951 103.062 287.182H102.153C102.153 286.918 102.246 286.664 102.432 286.42C102.62 286.173 102.874 285.977 103.193 285.834C103.516 285.691 103.869 285.619 104.253 285.619C104.862 285.619 105.339 285.772 105.684 286.078C106.029 286.381 106.208 286.799 106.221 287.333V289.765C106.221 290.25 106.283 290.635 106.406 290.922V291H105.459ZM103.96 290.312C104.243 290.312 104.512 290.238 104.766 290.092C105.02 289.945 105.203 289.755 105.317 289.521V288.437H104.609C103.503 288.437 102.949 288.76 102.949 289.408C102.949 289.691 103.044 289.913 103.232 290.072C103.421 290.232 103.664 290.312 103.96 290.312ZM108.569 285.717V291.61C108.569 292.626 108.109 293.134 107.188 293.134C106.989 293.134 106.805 293.104 106.636 293.046V292.323C106.74 292.349 106.877 292.362 107.046 292.362C107.248 292.362 107.401 292.307 107.505 292.196C107.612 292.089 107.666 291.9 107.666 291.63V285.717H108.569ZM107.573 284.315C107.573 284.172 107.617 284.05 107.705 283.949C107.796 283.845 107.928 283.793 108.101 283.793C108.276 283.793 108.41 283.843 108.501 283.944C108.592 284.045 108.638 284.169 108.638 284.315C108.638 284.462 108.592 284.584 108.501 284.682C108.41 284.779 108.276 284.828 108.101 284.828C107.925 284.828 107.793 284.779 107.705 284.682C107.617 284.584 107.573 284.462 107.573 284.315ZM109.81 288.314C109.81 287.504 110.002 286.853 110.386 286.361C110.77 285.867 111.273 285.619 111.895 285.619C112.513 285.619 113.003 285.831 113.364 286.254V283.5H114.268V291H113.438L113.394 290.434C113.032 290.876 112.529 291.098 111.885 291.098C111.273 291.098 110.773 290.847 110.386 290.346C110.002 289.844 109.81 289.19 109.81 288.383V288.314ZM110.713 288.417C110.713 289.016 110.837 289.485 111.084 289.823C111.331 290.162 111.673 290.331 112.109 290.331C112.682 290.331 113.101 290.074 113.364 289.56V287.133C113.094 286.635 112.679 286.386 112.119 286.386C111.676 286.386 111.331 286.557 111.084 286.898C110.837 287.24 110.713 287.746 110.713 288.417ZM117.866 291.098C117.15 291.098 116.567 290.863 116.118 290.395C115.669 289.923 115.444 289.293 115.444 288.505V288.339C115.444 287.815 115.544 287.348 115.742 286.938C115.944 286.524 116.224 286.202 116.582 285.971C116.943 285.736 117.334 285.619 117.754 285.619C118.441 285.619 118.975 285.845 119.355 286.298C119.736 286.75 119.927 287.398 119.927 288.241V288.617H116.348C116.361 289.138 116.512 289.56 116.802 289.882C117.095 290.201 117.466 290.36 117.915 290.36C118.234 290.36 118.504 290.295 118.726 290.165C118.947 290.035 119.141 289.862 119.307 289.647L119.858 290.077C119.416 290.757 118.752 291.098 117.866 291.098ZM117.754 286.361C117.389 286.361 117.083 286.495 116.836 286.762C116.589 287.025 116.436 287.396 116.377 287.875H119.023V287.807C118.997 287.348 118.874 286.993 118.652 286.742C118.431 286.488 118.132 286.361 117.754 286.361ZM123.169 291.098C122.453 291.098 121.87 290.863 121.421 290.395C120.972 289.923 120.747 289.293 120.747 288.505V288.339C120.747 287.815 120.846 287.348 121.045 286.938C121.247 286.524 121.527 286.202 121.885 285.971C122.246 285.736 122.637 285.619 123.057 285.619C123.743 285.619 124.277 285.845 124.658 286.298C125.039 286.75 125.229 287.398 125.229 288.241V288.617H121.65C121.663 289.138 121.815 289.56 122.104 289.882C122.397 290.201 122.769 290.36 123.218 290.36C123.537 290.36 123.807 290.295 124.028 290.165C124.25 290.035 124.443 289.862 124.609 289.647L125.161 290.077C124.718 290.757 124.054 291.098 123.169 291.098ZM123.057 286.361C122.692 286.361 122.386 286.495 122.139 286.762C121.891 287.025 121.738 287.396 121.68 287.875H124.326V287.807C124.3 287.348 124.176 286.993 123.955 286.742C123.734 286.488 123.434 286.361 123.057 286.361ZM130.742 288.417C130.742 289.221 130.558 289.869 130.19 290.36C129.823 290.852 129.325 291.098 128.696 291.098C128.055 291.098 127.55 290.894 127.183 290.487V293.031H126.279V285.717H127.104L127.148 286.303C127.516 285.847 128.027 285.619 128.682 285.619C129.316 285.619 129.818 285.858 130.186 286.337C130.557 286.815 130.742 287.481 130.742 288.334V288.417ZM129.839 288.314C129.839 287.719 129.712 287.248 129.458 286.903C129.204 286.558 128.856 286.386 128.413 286.386C127.866 286.386 127.456 286.628 127.183 287.113V289.638C127.453 290.119 127.866 290.36 128.423 290.36C128.856 290.36 129.199 290.189 129.453 289.848C129.71 289.503 129.839 288.992 129.839 288.314ZM134.971 289.599C134.971 289.354 134.878 289.166 134.692 289.032C134.51 288.896 134.189 288.778 133.73 288.681C133.275 288.583 132.912 288.466 132.642 288.329C132.375 288.192 132.176 288.03 132.046 287.841C131.919 287.652 131.855 287.427 131.855 287.167C131.855 286.734 132.038 286.368 132.402 286.068C132.77 285.769 133.239 285.619 133.809 285.619C134.408 285.619 134.893 285.774 135.264 286.083C135.638 286.392 135.825 286.788 135.825 287.27H134.917C134.917 287.022 134.811 286.809 134.6 286.63C134.391 286.451 134.128 286.361 133.809 286.361C133.48 286.361 133.223 286.433 133.037 286.576C132.852 286.719 132.759 286.907 132.759 287.138C132.759 287.356 132.845 287.52 133.018 287.631C133.19 287.742 133.501 287.847 133.95 287.948C134.403 288.049 134.769 288.17 135.049 288.31C135.329 288.45 135.535 288.619 135.669 288.817C135.806 289.013 135.874 289.252 135.874 289.535C135.874 290.007 135.685 290.386 135.308 290.673C134.93 290.956 134.44 291.098 133.838 291.098C133.415 291.098 133.04 291.023 132.715 290.873C132.389 290.723 132.134 290.515 131.948 290.248C131.766 289.978 131.675 289.687 131.675 289.374H132.578C132.594 289.677 132.715 289.918 132.939 290.097C133.167 290.272 133.467 290.36 133.838 290.36C134.18 290.36 134.453 290.292 134.658 290.155C134.867 290.015 134.971 289.83 134.971 289.599ZM138.032 291H137.129V285.717H138.032V291ZM137.056 284.315C137.056 284.169 137.1 284.045 137.188 283.944C137.279 283.843 137.412 283.793 137.588 283.793C137.764 283.793 137.897 283.843 137.988 283.944C138.079 284.045 138.125 284.169 138.125 284.315C138.125 284.462 138.079 284.584 137.988 284.682C137.897 284.779 137.764 284.828 137.588 284.828C137.412 284.828 137.279 284.779 137.188 284.682C137.1 284.584 137.056 284.462 137.056 284.315ZM140.337 285.717L140.366 286.381C140.77 285.873 141.297 285.619 141.948 285.619C143.065 285.619 143.628 286.249 143.638 287.509V291H142.734V287.504C142.731 287.123 142.643 286.841 142.471 286.659C142.301 286.477 142.036 286.386 141.675 286.386C141.382 286.386 141.125 286.464 140.903 286.62C140.682 286.776 140.509 286.981 140.386 287.235V291H139.482V285.717H140.337ZM144.785 288.314C144.785 287.491 144.976 286.837 145.356 286.352C145.737 285.863 146.242 285.619 146.87 285.619C147.515 285.619 148.018 285.847 148.379 286.303L148.423 285.717H149.248V290.873C149.248 291.557 149.045 292.095 148.638 292.489C148.234 292.883 147.69 293.08 147.007 293.08C146.626 293.08 146.253 292.999 145.889 292.836C145.524 292.673 145.246 292.45 145.054 292.167L145.522 291.625C145.91 292.104 146.383 292.343 146.943 292.343C147.383 292.343 147.725 292.219 147.969 291.972C148.216 291.724 148.34 291.376 148.34 290.927V290.473C147.979 290.889 147.485 291.098 146.86 291.098C146.242 291.098 145.741 290.849 145.356 290.351C144.976 289.853 144.785 289.174 144.785 288.314ZM145.693 288.417C145.693 289.013 145.815 289.481 146.06 289.823C146.304 290.162 146.646 290.331 147.085 290.331C147.655 290.331 148.073 290.072 148.34 289.555V287.143C148.063 286.638 147.648 286.386 147.095 286.386C146.655 286.386 146.312 286.557 146.064 286.898C145.817 287.24 145.693 287.746 145.693 288.417ZM151.519 286.356C151.919 285.865 152.44 285.619 153.081 285.619C154.198 285.619 154.761 286.249 154.771 287.509V291H153.867V287.504C153.864 287.123 153.776 286.841 153.604 286.659C153.434 286.477 153.169 286.386 152.808 286.386C152.515 286.386 152.257 286.464 152.036 286.62C151.815 286.776 151.642 286.981 151.519 287.235V291H150.615V283.5H151.519V286.356Z" fill="#868181" fill-opacity="0.6"/>
</svg>
