<svg width="646" height="332" viewBox="0 0 646 332" fill="none" xmlns="http://www.w3.org/2000/svg">
<rect width="646" height="332" fill="black"/>
<path d="M149.698 104.566L158.868 108.272V111.144L146.886 105.592V103.453L158.868 97.916V100.787L149.698 104.566ZM173.297 100.069C174.498 98.5947 176.061 97.8574 177.984 97.8574C181.334 97.8574 183.023 99.7471 183.053 103.526V114H180.343V103.512C180.333 102.369 180.069 101.524 179.552 100.978C179.044 100.431 178.248 100.157 177.164 100.157C176.285 100.157 175.514 100.392 174.85 100.86C174.186 101.329 173.668 101.944 173.297 102.706V114H170.587V91.5H173.297V100.069ZM195.738 114H193.014V95.9385L187.55 97.9453V95.4844L195.313 92.5693H195.738V114ZM220.992 104.479L211.31 100.685V97.9014L223.819 103.438V105.577L211.31 111.129V108.316L220.992 104.479ZM254.156 108.434H245.221L243.214 114H240.313L248.458 92.6719H250.919L259.078 114H256.192L254.156 108.434ZM246.07 106.119H253.321L249.688 96.1436L246.07 106.119ZM271.676 100.069C272.877 98.5947 274.439 97.8574 276.363 97.8574C279.713 97.8574 281.402 99.7471 281.432 103.526V114H278.722V103.512C278.712 102.369 278.448 101.524 277.931 100.978C277.423 100.431 276.627 100.157 275.543 100.157C274.664 100.157 273.893 100.392 273.229 100.86C272.564 101.329 272.047 101.944 271.676 102.706V114H268.966V91.5H271.676V100.069ZM292.066 114.293C289.918 114.293 288.17 113.59 286.822 112.184C285.475 110.768 284.801 108.878 284.801 106.515V106.017C284.801 104.444 285.099 103.043 285.694 101.812C286.3 100.572 287.14 99.6055 288.214 98.9121C289.298 98.209 290.47 97.8574 291.729 97.8574C293.79 97.8574 295.392 98.5361 296.534 99.8936C297.677 101.251 298.248 103.194 298.248 105.724V106.852H287.511C287.55 108.414 288.004 109.679 288.873 110.646C289.752 111.603 290.865 112.081 292.213 112.081C293.17 112.081 293.98 111.886 294.645 111.495C295.309 111.104 295.89 110.587 296.388 109.942L298.043 111.231C296.715 113.272 294.723 114.293 292.066 114.293ZM291.729 100.084C290.636 100.084 289.718 100.484 288.976 101.285C288.233 102.076 287.774 103.189 287.599 104.625H295.538V104.42C295.46 103.043 295.089 101.979 294.425 101.227C293.761 100.465 292.862 100.084 291.729 100.084ZM311.183 114C311.026 113.688 310.899 113.131 310.802 112.33C309.542 113.639 308.038 114.293 306.29 114.293C304.728 114.293 303.443 113.854 302.438 112.975C301.441 112.086 300.943 110.963 300.943 109.605C300.943 107.955 301.568 106.676 302.818 105.768C304.078 104.85 305.846 104.391 308.121 104.391H310.758V103.146C310.758 102.198 310.475 101.446 309.908 100.89C309.342 100.323 308.507 100.04 307.403 100.04C306.437 100.04 305.626 100.284 304.972 100.772C304.317 101.261 303.99 101.852 303.99 102.545H301.266C301.266 101.754 301.544 100.992 302.101 100.26C302.667 99.5176 303.429 98.9316 304.386 98.502C305.353 98.0723 306.412 97.8574 307.564 97.8574C309.391 97.8574 310.821 98.3164 311.856 99.2344C312.892 100.143 313.429 101.397 313.468 102.999V110.294C313.468 111.749 313.653 112.906 314.024 113.766V114H311.183ZM306.686 111.935C307.535 111.935 308.341 111.715 309.103 111.275C309.864 110.836 310.416 110.265 310.758 109.562V106.31H308.634C305.313 106.31 303.653 107.281 303.653 109.225C303.653 110.074 303.937 110.738 304.503 111.217C305.069 111.695 305.797 111.935 306.686 111.935ZM317.057 105.943C317.057 103.512 317.633 101.559 318.785 100.084C319.938 98.5996 321.446 97.8574 323.312 97.8574C325.167 97.8574 326.637 98.4922 327.721 99.7617V91.5H330.431V114H327.94L327.809 112.301C326.725 113.629 325.216 114.293 323.282 114.293C321.446 114.293 319.947 113.541 318.785 112.037C317.633 110.533 317.057 108.57 317.057 106.148V105.943ZM319.767 106.251C319.767 108.048 320.138 109.454 320.88 110.47C321.622 111.485 322.647 111.993 323.956 111.993C325.675 111.993 326.93 111.222 327.721 109.679V102.398C326.91 100.904 325.665 100.157 323.985 100.157C322.657 100.157 321.622 100.67 320.88 101.695C320.138 102.721 319.767 104.239 319.767 106.251ZM337.594 114H334.884V98.1504H337.594V114ZM334.664 93.9463C334.664 93.5068 334.796 93.1357 335.06 92.833C335.333 92.5303 335.733 92.3789 336.261 92.3789C336.788 92.3789 337.188 92.5303 337.462 92.833C337.735 93.1357 337.872 93.5068 337.872 93.9463C337.872 94.3857 337.735 94.752 337.462 95.0449C337.188 95.3379 336.788 95.4844 336.261 95.4844C335.733 95.4844 335.333 95.3379 335.06 95.0449C334.796 94.752 334.664 94.3857 334.664 93.9463ZM344.508 98.1504L344.596 100.143C345.807 98.6191 347.389 97.8574 349.342 97.8574C352.691 97.8574 354.381 99.7471 354.41 103.526V114H351.7V103.512C351.69 102.369 351.427 101.524 350.909 100.978C350.401 100.431 349.605 100.157 348.521 100.157C347.643 100.157 346.871 100.392 346.207 100.86C345.543 101.329 345.025 101.944 344.654 102.706V114H341.944V98.1504H344.508ZM357.853 105.943C357.853 103.473 358.424 101.51 359.566 100.055C360.709 98.5898 362.223 97.8574 364.107 97.8574C366.041 97.8574 367.55 98.541 368.634 99.9082L368.766 98.1504H371.241V113.619C371.241 115.67 370.631 117.286 369.41 118.468C368.199 119.649 366.568 120.24 364.518 120.24C363.375 120.24 362.257 119.996 361.163 119.508C360.069 119.02 359.234 118.351 358.658 117.501L360.064 115.875C361.227 117.311 362.647 118.028 364.327 118.028C365.646 118.028 366.671 117.657 367.403 116.915C368.146 116.173 368.517 115.128 368.517 113.78V112.418C367.433 113.668 365.953 114.293 364.078 114.293C362.223 114.293 360.719 113.546 359.566 112.052C358.424 110.558 357.853 108.521 357.853 105.943ZM360.577 106.251C360.577 108.038 360.943 109.444 361.676 110.47C362.408 111.485 363.434 111.993 364.752 111.993C366.461 111.993 367.716 111.217 368.517 109.664V102.428C367.687 100.914 366.441 100.157 364.781 100.157C363.463 100.157 362.433 100.67 361.69 101.695C360.948 102.721 360.577 104.239 360.577 106.251ZM392.042 104.566L401.212 108.272V111.144L389.229 105.592V103.453L401.212 97.916V100.787L392.042 104.566ZM413.473 115.831H411.144L420.05 92.6719H422.364L413.473 115.831ZM435.445 100.069C436.646 98.5947 438.209 97.8574 440.133 97.8574C443.482 97.8574 445.172 99.7471 445.201 103.526V114H442.491V103.512C442.481 102.369 442.218 101.524 441.7 100.978C441.192 100.431 440.396 100.157 439.312 100.157C438.434 100.157 437.662 100.392 436.998 100.86C436.334 101.329 435.816 101.944 435.445 102.706V114H432.735V91.5H435.445V100.069ZM457.887 114H455.162V95.9385L449.698 97.9453V95.4844L457.462 92.5693H457.887V114ZM483.141 104.479L473.458 100.685V97.9014L485.968 103.438V105.577L473.458 111.129V108.316L483.141 104.479Z" fill="white"/>
<path d="M403.482 128.866C403.408 128.6 403.132 128.444 402.866 128.518L398.531 129.726C398.265 129.8 398.109 130.075 398.183 130.341C398.257 130.607 398.533 130.763 398.799 130.689L402.652 129.616L403.726 133.469C403.8 133.735 404.075 133.891 404.341 133.817C404.607 133.743 404.763 133.467 404.689 133.201L403.482 128.866ZM402.565 128.754L345.565 229.754L346.435 230.246L403.435 129.246L402.565 128.754Z" fill="white"/>
<path d="M169.999 139.958C169.976 139.407 169.51 138.978 168.958 139.001L159.966 139.376C159.414 139.399 158.986 139.864 159.009 140.416C159.032 140.968 159.498 141.397 160.049 141.374L168.042 141.041L168.376 149.034C168.399 149.586 168.864 150.014 169.416 149.991C169.968 149.968 170.397 149.502 170.374 148.951L169.999 139.958ZM123.736 190.677L169.736 140.677L168.264 139.323L122.264 189.323L123.736 190.677Z" fill="white"/>
<path d="M87.3594 204.024C87.3594 206.114 87.0078 207.94 86.3047 209.503C85.6016 211.056 84.6055 212.242 83.3164 213.062C82.0273 213.883 80.5234 214.293 78.8047 214.293C77.125 214.293 75.6357 213.883 74.3369 213.062C73.0381 212.232 72.0273 211.056 71.3047 209.532C70.5918 207.999 70.2256 206.227 70.2061 204.215V202.677C70.2061 200.626 70.5625 198.814 71.2754 197.242C71.9883 195.67 72.9941 194.469 74.293 193.639C75.6016 192.799 77.0957 192.379 78.7754 192.379C80.4844 192.379 81.9883 192.794 83.2871 193.624C84.5957 194.444 85.6016 195.641 86.3047 197.213C87.0078 198.775 87.3594 200.597 87.3594 202.677V204.024ZM84.5615 202.647C84.5615 200.118 84.0537 198.18 83.0381 196.832C82.0225 195.475 80.6016 194.796 78.7754 194.796C76.998 194.796 75.5967 195.475 74.5713 196.832C73.5557 198.18 73.0332 200.055 73.0039 202.457V204.024C73.0039 206.476 73.5166 208.404 74.542 209.811C75.5771 211.207 76.998 211.905 78.8047 211.905C80.6211 211.905 82.0273 211.246 83.0234 209.928C84.0195 208.6 84.5322 206.7 84.5615 204.229V202.647ZM104.542 206.251C104.542 208.663 103.99 210.606 102.887 212.081C101.783 213.556 100.289 214.293 98.4043 214.293C96.4805 214.293 94.9668 213.683 93.8633 212.462V220.094H91.1533V198.15H93.6289L93.7607 199.908C94.8643 198.541 96.3975 197.857 98.3604 197.857C100.265 197.857 101.769 198.575 102.872 200.011C103.985 201.446 104.542 203.443 104.542 206.002V206.251ZM101.832 205.943C101.832 204.156 101.451 202.745 100.689 201.71C99.9277 200.675 98.8828 200.157 97.5547 200.157C95.9141 200.157 94.6836 200.885 93.8633 202.34V209.913C94.6738 211.358 95.9141 212.081 97.584 212.081C98.8828 212.081 99.9131 211.568 100.675 210.543C101.446 209.508 101.832 207.975 101.832 205.943ZM114.576 214.293C112.428 214.293 110.68 213.59 109.332 212.184C107.984 210.768 107.311 208.878 107.311 206.515V206.017C107.311 204.444 107.608 203.043 108.204 201.812C108.81 200.572 109.649 199.605 110.724 198.912C111.808 198.209 112.979 197.857 114.239 197.857C116.3 197.857 117.901 198.536 119.044 199.894C120.187 201.251 120.758 203.194 120.758 205.724V206.852H110.021C110.06 208.414 110.514 209.679 111.383 210.646C112.262 211.603 113.375 212.081 114.723 212.081C115.68 212.081 116.49 211.886 117.154 211.495C117.818 211.104 118.399 210.587 118.897 209.942L120.553 211.231C119.225 213.272 117.232 214.293 114.576 214.293ZM114.239 200.084C113.146 200.084 112.228 200.484 111.485 201.285C110.743 202.076 110.284 203.189 110.108 204.625H118.048V204.42C117.97 203.043 117.599 201.979 116.935 201.227C116.271 200.465 115.372 200.084 114.239 200.084ZM126.471 198.15L126.559 200.143C127.77 198.619 129.352 197.857 131.305 197.857C134.654 197.857 136.344 199.747 136.373 203.526V214H133.663V203.512C133.653 202.369 133.39 201.524 132.872 200.978C132.364 200.431 131.568 200.157 130.484 200.157C129.605 200.157 128.834 200.392 128.17 200.86C127.506 201.329 126.988 201.944 126.617 202.706V214H123.907V198.15H126.471ZM143.404 214H140.694V198.15H143.404V214ZM140.475 193.946C140.475 193.507 140.606 193.136 140.87 192.833C141.144 192.53 141.544 192.379 142.071 192.379C142.599 192.379 142.999 192.53 143.272 192.833C143.546 193.136 143.683 193.507 143.683 193.946C143.683 194.386 143.546 194.752 143.272 195.045C142.999 195.338 142.599 195.484 142.071 195.484C141.544 195.484 141.144 195.338 140.87 195.045C140.606 194.752 140.475 194.386 140.475 193.946ZM150.318 198.15L150.406 200.143C151.617 198.619 153.199 197.857 155.152 197.857C158.502 197.857 160.191 199.747 160.221 203.526V214H157.511V203.512C157.501 202.369 157.237 201.524 156.72 200.978C156.212 200.431 155.416 200.157 154.332 200.157C153.453 200.157 152.682 200.392 152.018 200.86C151.354 201.329 150.836 201.944 150.465 202.706V214H147.755V198.15H150.318ZM163.663 205.943C163.663 203.473 164.234 201.51 165.377 200.055C166.52 198.59 168.033 197.857 169.918 197.857C171.852 197.857 173.36 198.541 174.444 199.908L174.576 198.15H177.052V213.619C177.052 215.67 176.441 217.286 175.221 218.468C174.01 219.649 172.379 220.24 170.328 220.24C169.186 220.24 168.067 219.996 166.974 219.508C165.88 219.02 165.045 218.351 164.469 217.501L165.875 215.875C167.037 217.311 168.458 218.028 170.138 218.028C171.456 218.028 172.481 217.657 173.214 216.915C173.956 216.173 174.327 215.128 174.327 213.78V212.418C173.243 213.668 171.764 214.293 169.889 214.293C168.033 214.293 166.529 213.546 165.377 212.052C164.234 210.558 163.663 208.521 163.663 205.943ZM166.388 206.251C166.388 208.038 166.754 209.444 167.486 210.47C168.219 211.485 169.244 211.993 170.562 211.993C172.271 211.993 173.526 211.217 174.327 209.664V202.428C173.497 200.914 172.252 200.157 170.592 200.157C169.273 200.157 168.243 200.67 167.501 201.695C166.759 202.721 166.388 204.239 166.388 206.251ZM192.271 194.312V198.15H195.23V200.245H192.271V210.074C192.271 210.709 192.403 211.188 192.667 211.51C192.931 211.822 193.38 211.979 194.015 211.979C194.327 211.979 194.757 211.92 195.304 211.803V214C194.591 214.195 193.897 214.293 193.224 214.293C192.013 214.293 191.1 213.927 190.484 213.194C189.869 212.462 189.562 211.422 189.562 210.074V200.245H186.676V198.15H189.562V194.312H192.271ZM208.194 214C208.038 213.688 207.911 213.131 207.813 212.33C206.554 213.639 205.05 214.293 203.302 214.293C201.739 214.293 200.455 213.854 199.449 212.975C198.453 212.086 197.955 210.963 197.955 209.605C197.955 207.955 198.58 206.676 199.83 205.768C201.09 204.85 202.857 204.391 205.133 204.391H207.77V203.146C207.77 202.198 207.486 201.446 206.92 200.89C206.354 200.323 205.519 200.04 204.415 200.04C203.448 200.04 202.638 200.284 201.983 200.772C201.329 201.261 201.002 201.852 201.002 202.545H198.277C198.277 201.754 198.556 200.992 199.112 200.26C199.679 199.518 200.44 198.932 201.397 198.502C202.364 198.072 203.424 197.857 204.576 197.857C206.402 197.857 207.833 198.316 208.868 199.234C209.903 200.143 210.44 201.397 210.479 202.999V210.294C210.479 211.749 210.665 212.906 211.036 213.766V214H208.194ZM203.697 211.935C204.547 211.935 205.353 211.715 206.114 211.275C206.876 210.836 207.428 210.265 207.77 209.562V206.31H205.646C202.325 206.31 200.665 207.281 200.665 209.225C200.665 210.074 200.948 210.738 201.515 211.217C202.081 211.695 202.809 211.935 203.697 211.935ZM214.083 205.943C214.083 203.473 214.654 201.51 215.797 200.055C216.939 198.59 218.453 197.857 220.338 197.857C222.271 197.857 223.78 198.541 224.864 199.908L224.996 198.15H227.472V213.619C227.472 215.67 226.861 217.286 225.641 218.468C224.43 219.649 222.799 220.24 220.748 220.24C219.605 220.24 218.487 219.996 217.394 219.508C216.3 219.02 215.465 218.351 214.889 217.501L216.295 215.875C217.457 217.311 218.878 218.028 220.558 218.028C221.876 218.028 222.901 217.657 223.634 216.915C224.376 216.173 224.747 215.128 224.747 213.78V212.418C223.663 213.668 222.184 214.293 220.309 214.293C218.453 214.293 216.949 213.546 215.797 212.052C214.654 210.558 214.083 208.521 214.083 205.943ZM216.808 206.251C216.808 208.038 217.174 209.444 217.906 210.47C218.639 211.485 219.664 211.993 220.982 211.993C222.691 211.993 223.946 211.217 224.747 209.664V202.428C223.917 200.914 222.672 200.157 221.012 200.157C219.693 200.157 218.663 200.67 217.921 201.695C217.179 202.721 216.808 204.239 216.808 206.251Z" fill="white"/>
<path d="M405.9 207.232C405.637 209.488 404.802 211.231 403.396 212.462C401.999 213.683 400.139 214.293 397.814 214.293C395.295 214.293 393.273 213.39 391.75 211.583C390.236 209.776 389.479 207.359 389.479 204.332V202.281C389.479 200.299 389.831 198.556 390.534 197.052C391.247 195.548 392.253 194.396 393.552 193.595C394.851 192.784 396.354 192.379 398.063 192.379C400.329 192.379 402.146 193.014 403.513 194.283C404.88 195.543 405.676 197.291 405.9 199.527H403.073C402.829 197.828 402.297 196.598 401.477 195.836C400.666 195.074 399.528 194.693 398.063 194.693C396.267 194.693 394.855 195.357 393.83 196.686C392.814 198.014 392.307 199.903 392.307 202.354V204.42C392.307 206.734 392.79 208.575 393.757 209.942C394.724 211.31 396.076 211.993 397.814 211.993C399.377 211.993 400.573 211.642 401.403 210.938C402.243 210.226 402.8 208.99 403.073 207.232H405.9ZM412.272 214H409.562V191.5H412.272V214ZM415.905 205.929C415.905 204.376 416.208 202.979 416.813 201.739C417.429 200.499 418.278 199.542 419.362 198.868C420.456 198.194 421.701 197.857 423.098 197.857C425.256 197.857 426.999 198.604 428.327 200.099C429.665 201.593 430.334 203.58 430.334 206.061V206.251C430.334 207.794 430.036 209.181 429.44 210.411C428.854 211.632 428.01 212.584 426.906 213.268C425.812 213.951 424.553 214.293 423.127 214.293C420.979 214.293 419.235 213.546 417.897 212.052C416.569 210.558 415.905 208.58 415.905 206.119V205.929ZM418.63 206.251C418.63 208.009 419.035 209.42 419.846 210.484C420.666 211.549 421.76 212.081 423.127 212.081C424.504 212.081 425.598 211.544 426.408 210.47C427.219 209.386 427.624 207.872 427.624 205.929C427.624 204.19 427.209 202.784 426.379 201.71C425.559 200.626 424.465 200.084 423.098 200.084C421.76 200.084 420.681 200.616 419.86 201.681C419.04 202.745 418.63 204.269 418.63 206.251ZM442.961 209.796C442.961 209.063 442.683 208.497 442.126 208.097C441.579 207.687 440.617 207.335 439.24 207.042C437.873 206.749 436.784 206.397 435.974 205.987C435.173 205.577 434.577 205.089 434.187 204.522C433.806 203.956 433.615 203.282 433.615 202.501C433.615 201.202 434.162 200.104 435.256 199.205C436.359 198.307 437.766 197.857 439.475 197.857C441.271 197.857 442.727 198.321 443.84 199.249C444.963 200.177 445.524 201.363 445.524 202.809H442.8C442.8 202.066 442.482 201.427 441.848 200.89C441.223 200.353 440.432 200.084 439.475 200.084C438.488 200.084 437.717 200.299 437.16 200.729C436.604 201.158 436.325 201.72 436.325 202.413C436.325 203.067 436.584 203.561 437.102 203.893C437.619 204.225 438.552 204.542 439.899 204.845C441.257 205.147 442.355 205.509 443.195 205.929C444.035 206.349 444.655 206.856 445.056 207.452C445.466 208.038 445.671 208.756 445.671 209.605C445.671 211.021 445.104 212.159 443.972 213.019C442.839 213.868 441.369 214.293 439.562 214.293C438.293 214.293 437.17 214.068 436.193 213.619C435.217 213.17 434.45 212.545 433.894 211.744C433.347 210.934 433.073 210.06 433.073 209.122H435.783C435.832 210.03 436.193 210.753 436.867 211.29C437.551 211.817 438.449 212.081 439.562 212.081C440.588 212.081 441.408 211.876 442.023 211.466C442.648 211.046 442.961 210.489 442.961 209.796ZM452.146 214H449.436V198.15H452.146V214ZM449.216 193.946C449.216 193.507 449.348 193.136 449.611 192.833C449.885 192.53 450.285 192.379 450.812 192.379C451.34 192.379 451.74 192.53 452.014 192.833C452.287 193.136 452.424 193.507 452.424 193.946C452.424 194.386 452.287 194.752 452.014 195.045C451.74 195.338 451.34 195.484 450.812 195.484C450.285 195.484 449.885 195.338 449.611 195.045C449.348 194.752 449.216 194.386 449.216 193.946ZM459.06 198.15L459.147 200.143C460.358 198.619 461.94 197.857 463.894 197.857C467.243 197.857 468.933 199.747 468.962 203.526V214H466.252V203.512C466.242 202.369 465.979 201.524 465.461 200.978C464.953 200.431 464.157 200.157 463.073 200.157C462.194 200.157 461.423 200.392 460.759 200.86C460.095 201.329 459.577 201.944 459.206 202.706V214H456.496V198.15H459.06ZM472.404 205.943C472.404 203.473 472.976 201.51 474.118 200.055C475.261 198.59 476.774 197.857 478.659 197.857C480.593 197.857 482.102 198.541 483.186 199.908L483.317 198.15H485.793V213.619C485.793 215.67 485.183 217.286 483.962 218.468C482.751 219.649 481.12 220.24 479.069 220.24C477.927 220.24 476.809 219.996 475.715 219.508C474.621 219.02 473.786 218.351 473.21 217.501L474.616 215.875C475.778 217.311 477.199 218.028 478.879 218.028C480.197 218.028 481.223 217.657 481.955 216.915C482.697 216.173 483.068 215.128 483.068 213.78V212.418C481.984 213.668 480.505 214.293 478.63 214.293C476.774 214.293 475.271 213.546 474.118 212.052C472.976 210.558 472.404 208.521 472.404 205.943ZM475.129 206.251C475.129 208.038 475.495 209.444 476.228 210.47C476.96 211.485 477.985 211.993 479.304 211.993C481.013 211.993 482.268 211.217 483.068 209.664V202.428C482.238 200.914 480.993 200.157 479.333 200.157C478.015 200.157 476.984 200.67 476.242 201.695C475.5 202.721 475.129 204.239 475.129 206.251ZM501.013 194.312V198.15H503.972V200.245H501.013V210.074C501.013 210.709 501.145 211.188 501.408 211.51C501.672 211.822 502.121 211.979 502.756 211.979C503.068 211.979 503.498 211.92 504.045 211.803V214C503.332 214.195 502.639 214.293 501.965 214.293C500.754 214.293 499.841 213.927 499.226 213.194C498.61 212.462 498.303 211.422 498.303 210.074V200.245H495.417V198.15H498.303V194.312H501.013ZM516.936 214C516.779 213.688 516.652 213.131 516.555 212.33C515.295 213.639 513.791 214.293 512.043 214.293C510.48 214.293 509.196 213.854 508.19 212.975C507.194 212.086 506.696 210.963 506.696 209.605C506.696 207.955 507.321 206.676 508.571 205.768C509.831 204.85 511.599 204.391 513.874 204.391H516.511V203.146C516.511 202.198 516.228 201.446 515.661 200.89C515.095 200.323 514.26 200.04 513.156 200.04C512.189 200.04 511.379 200.284 510.725 200.772C510.07 201.261 509.743 201.852 509.743 202.545H507.019C507.019 201.754 507.297 200.992 507.854 200.26C508.42 199.518 509.182 198.932 510.139 198.502C511.105 198.072 512.165 197.857 513.317 197.857C515.144 197.857 516.574 198.316 517.609 199.234C518.645 200.143 519.182 201.397 519.221 202.999V210.294C519.221 211.749 519.406 212.906 519.777 213.766V214H516.936ZM512.438 211.935C513.288 211.935 514.094 211.715 514.855 211.275C515.617 210.836 516.169 210.265 516.511 209.562V206.31H514.387C511.066 206.31 509.406 207.281 509.406 209.225C509.406 210.074 509.689 210.738 510.256 211.217C510.822 211.695 511.55 211.935 512.438 211.935ZM522.824 205.943C522.824 203.473 523.396 201.51 524.538 200.055C525.681 198.59 527.194 197.857 529.079 197.857C531.013 197.857 532.521 198.541 533.605 199.908L533.737 198.15H536.213V213.619C536.213 215.67 535.603 217.286 534.382 218.468C533.171 219.649 531.54 220.24 529.489 220.24C528.347 220.24 527.229 219.996 526.135 219.508C525.041 219.02 524.206 218.351 523.63 217.501L525.036 215.875C526.198 217.311 527.619 218.028 529.299 218.028C530.617 218.028 531.643 217.657 532.375 216.915C533.117 216.173 533.488 215.128 533.488 213.78V212.418C532.404 213.668 530.925 214.293 529.05 214.293C527.194 214.293 525.69 213.546 524.538 212.052C523.396 210.558 522.824 208.521 522.824 205.943ZM525.549 206.251C525.549 208.038 525.915 209.444 526.647 210.47C527.38 211.485 528.405 211.993 529.724 211.993C531.433 211.993 532.688 211.217 533.488 209.664V202.428C532.658 200.914 531.413 200.157 529.753 200.157C528.435 200.157 527.404 200.67 526.662 201.695C525.92 202.721 525.549 204.239 525.549 206.251Z" fill="white"/>
<path d="M458.207 146.022C457.666 145.907 457.136 146.253 457.022 146.793L455.161 155.599C455.047 156.139 455.393 156.67 455.933 156.784C456.473 156.898 457.004 156.553 457.118 156.012L458.772 148.185L466.599 149.839C467.139 149.953 467.67 149.607 467.784 149.067C467.898 148.527 467.553 147.996 467.012 147.882L458.207 146.022ZM457.162 147.546L485.162 190.546L486.838 189.454L458.838 146.454L457.162 147.546Z" fill="white"/>
<path d="M310.894 260.291H306.419V265H305.013V254.336H311.619V255.493H306.419V259.141H310.894V260.291ZM312.571 260.964C312.571 260.188 312.723 259.49 313.025 258.87C313.333 258.25 313.758 257.771 314.3 257.434C314.847 257.097 315.469 256.929 316.167 256.929C317.247 256.929 318.118 257.302 318.782 258.049C319.451 258.796 319.786 259.79 319.786 261.03V261.125C319.786 261.897 319.637 262.59 319.339 263.206C319.046 263.816 318.624 264.292 318.072 264.634C317.525 264.976 316.895 265.146 316.182 265.146C315.108 265.146 314.236 264.773 313.567 264.026C312.903 263.279 312.571 262.29 312.571 261.06V260.964ZM313.934 261.125C313.934 262.004 314.136 262.71 314.542 263.242C314.952 263.774 315.499 264.041 316.182 264.041C316.871 264.041 317.417 263.772 317.823 263.235C318.228 262.693 318.431 261.936 318.431 260.964C318.431 260.095 318.223 259.392 317.808 258.855C317.398 258.313 316.851 258.042 316.167 258.042C315.499 258.042 314.959 258.308 314.549 258.84C314.139 259.373 313.934 260.134 313.934 261.125ZM325.315 258.291C325.11 258.257 324.888 258.24 324.649 258.24C323.76 258.24 323.157 258.618 322.84 259.375V265H321.485V257.075H322.803L322.825 257.991C323.27 257.283 323.899 256.929 324.715 256.929C324.979 256.929 325.179 256.963 325.315 257.031V258.291ZM333.716 263.132L335.24 257.075H336.595L334.288 265H333.189L331.263 258.994L329.388 265H328.289L325.989 257.075H327.337L328.897 263.008L330.743 257.075H331.834L333.716 263.132ZM342.872 265C342.793 264.844 342.73 264.565 342.681 264.165C342.051 264.819 341.299 265.146 340.425 265.146C339.644 265.146 339.002 264.927 338.499 264.487C338.001 264.043 337.752 263.481 337.752 262.803C337.752 261.978 338.064 261.338 338.689 260.884C339.319 260.425 340.203 260.195 341.341 260.195H342.659V259.573C342.659 259.099 342.518 258.723 342.234 258.445C341.951 258.162 341.534 258.02 340.982 258.02C340.499 258.02 340.093 258.142 339.766 258.386C339.439 258.63 339.275 258.926 339.275 259.272H337.913C337.913 258.877 338.052 258.496 338.331 258.13C338.614 257.759 338.995 257.466 339.473 257.251C339.957 257.036 340.486 256.929 341.062 256.929C341.976 256.929 342.691 257.158 343.208 257.617C343.726 258.071 343.995 258.699 344.014 259.5V263.147C344.014 263.875 344.107 264.453 344.292 264.883V265H342.872ZM340.623 263.967C341.048 263.967 341.451 263.857 341.832 263.638C342.212 263.418 342.488 263.132 342.659 262.781V261.155H341.597C339.937 261.155 339.107 261.641 339.107 262.612C339.107 263.037 339.249 263.369 339.532 263.608C339.815 263.848 340.179 263.967 340.623 263.967ZM349.969 258.291C349.764 258.257 349.542 258.24 349.302 258.24C348.414 258.24 347.811 258.618 347.493 259.375V265H346.138V257.075H347.457L347.479 257.991C347.923 257.283 348.553 256.929 349.368 256.929C349.632 256.929 349.832 256.963 349.969 257.031V258.291ZM350.745 260.972C350.745 259.756 351.033 258.779 351.609 258.042C352.186 257.3 352.94 256.929 353.873 256.929C354.8 256.929 355.535 257.246 356.077 257.881V253.75H357.432V265H356.187L356.121 264.15C355.579 264.814 354.825 265.146 353.858 265.146C352.94 265.146 352.19 264.771 351.609 264.019C351.033 263.267 350.745 262.285 350.745 261.074V260.972ZM352.1 261.125C352.1 262.024 352.286 262.727 352.657 263.235C353.028 263.743 353.541 263.997 354.195 263.997C355.054 263.997 355.682 263.611 356.077 262.839V259.199C355.672 258.452 355.049 258.079 354.209 258.079C353.545 258.079 353.028 258.335 352.657 258.848C352.286 259.36 352.1 260.12 352.1 261.125ZM366.617 260.247C365.411 259.9 364.532 259.475 363.98 258.972C363.433 258.464 363.16 257.839 363.16 257.097C363.16 256.257 363.494 255.564 364.163 255.017C364.837 254.465 365.711 254.189 366.785 254.189C367.518 254.189 368.169 254.331 368.741 254.614C369.317 254.897 369.761 255.288 370.074 255.786C370.391 256.284 370.55 256.829 370.55 257.419H369.136C369.136 256.775 368.931 256.27 368.521 255.903C368.111 255.532 367.532 255.347 366.785 255.347C366.092 255.347 365.55 255.5 365.159 255.808C364.773 256.111 364.581 256.533 364.581 257.075C364.581 257.51 364.764 257.878 365.13 258.181C365.501 258.479 366.128 258.752 367.012 259.001C367.901 259.25 368.594 259.526 369.092 259.829C369.595 260.127 369.966 260.476 370.206 260.876C370.45 261.277 370.572 261.748 370.572 262.29C370.572 263.154 370.235 263.848 369.561 264.37C368.887 264.888 367.986 265.146 366.858 265.146C366.126 265.146 365.442 265.007 364.808 264.729C364.173 264.446 363.682 264.06 363.335 263.572C362.994 263.083 362.823 262.529 362.823 261.909H364.236C364.236 262.554 364.473 263.064 364.947 263.44C365.425 263.811 366.062 263.997 366.858 263.997C367.601 263.997 368.169 263.845 368.565 263.542C368.96 263.24 369.158 262.827 369.158 262.305C369.158 261.782 368.975 261.379 368.609 261.096C368.243 260.808 367.579 260.525 366.617 260.247ZM373.641 265H372.286V253.75H373.641V265ZM380.708 265C380.63 264.844 380.567 264.565 380.518 264.165C379.888 264.819 379.136 265.146 378.262 265.146C377.481 265.146 376.839 264.927 376.336 264.487C375.838 264.043 375.589 263.481 375.589 262.803C375.589 261.978 375.901 261.338 376.526 260.884C377.156 260.425 378.04 260.195 379.178 260.195H380.496V259.573C380.496 259.099 380.354 258.723 380.071 258.445C379.788 258.162 379.371 258.02 378.819 258.02C378.335 258.02 377.93 258.142 377.603 258.386C377.276 258.63 377.112 258.926 377.112 259.272H375.75C375.75 258.877 375.889 258.496 376.167 258.13C376.451 257.759 376.832 257.466 377.31 257.251C377.793 257.036 378.323 256.929 378.899 256.929C379.812 256.929 380.528 257.158 381.045 257.617C381.563 258.071 381.832 258.699 381.851 259.5V263.147C381.851 263.875 381.944 264.453 382.129 264.883V265H380.708ZM378.46 263.967C378.885 263.967 379.288 263.857 379.668 263.638C380.049 263.418 380.325 263.132 380.496 262.781V261.155H379.434C377.774 261.155 376.944 261.641 376.944 262.612C376.944 263.037 377.085 263.369 377.369 263.608C377.652 263.848 378.016 263.967 378.46 263.967ZM388.589 262.898C388.589 262.532 388.45 262.249 388.172 262.048C387.898 261.843 387.417 261.667 386.729 261.521C386.045 261.375 385.501 261.199 385.096 260.994C384.695 260.789 384.397 260.544 384.202 260.261C384.012 259.978 383.917 259.641 383.917 259.25C383.917 258.601 384.19 258.052 384.737 257.603C385.289 257.153 385.992 256.929 386.846 256.929C387.745 256.929 388.472 257.161 389.029 257.625C389.59 258.088 389.871 258.682 389.871 259.404H388.509C388.509 259.033 388.35 258.713 388.033 258.445C387.72 258.176 387.325 258.042 386.846 258.042C386.353 258.042 385.967 258.149 385.689 258.364C385.411 258.579 385.271 258.86 385.271 259.207C385.271 259.534 385.401 259.78 385.66 259.946C385.918 260.112 386.385 260.271 387.059 260.422C387.737 260.574 388.287 260.754 388.707 260.964C389.126 261.174 389.437 261.428 389.637 261.726C389.842 262.019 389.944 262.378 389.944 262.803C389.944 263.511 389.661 264.08 389.095 264.509C388.528 264.934 387.793 265.146 386.89 265.146C386.255 265.146 385.694 265.034 385.206 264.81C384.717 264.585 384.334 264.272 384.056 263.872C383.782 263.467 383.646 263.03 383.646 262.561H385C385.025 263.015 385.206 263.376 385.542 263.645C385.884 263.909 386.333 264.041 386.89 264.041C387.403 264.041 387.813 263.938 388.121 263.733C388.433 263.523 388.589 263.245 388.589 262.898ZM393.064 258.035C393.665 257.297 394.446 256.929 395.408 256.929C397.083 256.929 397.928 257.874 397.942 259.763V265H396.587V259.756C396.583 259.185 396.451 258.762 396.192 258.489C395.938 258.215 395.54 258.079 394.998 258.079C394.559 258.079 394.173 258.196 393.841 258.43C393.509 258.665 393.25 258.972 393.064 259.353V265H391.709V253.75H393.064V258.035Z" fill="white"/>
</svg>
